<svg xmlns="http://www.w3.org/2000/svg" width="30" height="30" viewBox="0 0 30 30">
    <g fill="#000" fill-rule="evenodd">
        <path d="M3.39 4.099v6.377h6.377V4.099H3.39zM8.132 8.84H5.026V5.734h3.106v3.107zM20.233 4.099v6.377h6.377V4.099h-6.377zm4.742 4.742h-3.107V5.734h3.107v3.107zM3.39 19.524v6.377h6.377v-6.377H3.39zm4.742 4.797H5.026v-3.107h3.106v3.107zM13.092 22.25c0-.437.055-.873 0-1.309 0-.382.11-.49.49-.49.437.054.873 0 1.418 0v-2.072c0-.49-.164-1.144.109-1.417.272-.272.981-.109 1.472-.109h.327v1.853h3.924v1.799h1.962v1.799h-1.853V25.9h-1.908v-1.799H15.11V22.25h-2.017zm5.778 0v-1.8h-1.527c-.109 0-.327.219-.327.328-.054.49 0 .98 0 1.471h1.854zM16.962 16.799c0-.436.055-.818 0-1.254 0-.436.11-.6.545-.545.436.054.872 0 1.363 0v-2.18c0-1.417 0-1.417 1.526-1.417h6.159V13.2h-1.417c-.327 0-.49.055-.49.382V15h1.907v1.799h-3.87V13.2h-1.962v3.543c-1.254.055-2.507.055-3.76.055zM13.038 11.348V9.549h-1.799c-.054-.054-.054-.109-.054-.109 0-.49-.164-1.144.054-1.471.218-.273.981-.11 1.472-.164.109 0 .218 0 .381-.054V6.442c0-.381.11-.49.49-.49h3.38V4.589c0-.327.11-.49.49-.49h1.363v3.597H15v3.597c-.709.055-1.308.055-1.962.055z"/>
        <path d="M22.74 20.45c0-.49 0-.926.055-1.417 0-.109.218-.327.327-.327h3.488v5.397h-1.908V25.9h-1.908v-3.216c0-.109.218-.272.382-.272.49-.055.981 0 1.526 0V20.56c-.654-.164-1.308-.164-1.962-.11zM9.168 16.799c.054-.545.054-1.09.109-1.745h3.87v-1.417c0-.327.109-.436.436-.436h1.472v-1.744c.654-.054 1.308-.054 1.907-.109V15h-1.907v1.799H9.168z"/>
        <path d="M5.243 15c0-.436.055-.818.055-1.254-.055-.436.163-.545.6-.545.436.055.817 0 1.362 0v-1.308c-.054-.381.11-.545.545-.49h4.633c.218 0 .382-.055.6-.055v1.853H9.822c-.49 0-.709.11-.654.6.054.381 0 .763 0 1.199a47.113 47.113 0 0 0-3.925 0zM15 24.048v1.526c0 .055 0 .164-.055.273H11.13v-3.325c0-.055.218-.218.381-.218.491-.055.982-.055 1.527-.055v1.854c.763-.055 1.362-.055 1.962-.055z"/>
        <path d="M5.243 14.946v3.652H3.39v-2.344c0-1.2 0-1.2 1.308-1.2.164 0 .382-.054.545-.108zM13.038 4.208v1.744h-1.853V4.535c0-.11.218-.273.327-.273.49-.109.98-.054 1.526-.054zM16.908 11.348c0-.436.054-.872.054-1.363 0-.327.11-.436.436-.436h1.417v1.745c-.6.054-1.253.054-1.907.054zM5.243 13.147H3.39V11.73c0-.11.218-.273.327-.327.49-.055.981 0 1.526 0v1.744zM9.113 16.799v1.798H7.26c0-.49-.054-.98 0-1.417 0-.109.273-.272.436-.272.49-.11.981-.11 1.417-.11.055 0 0 0 0 0zM22.74 16.799v1.798h-1.962c0-.49.054-.926 0-1.417 0-.272.109-.381.436-.381.545.054 1.09.054 1.526 0zM12.983 20.396H11.13v-1.472c0-.109.218-.272.327-.272.49-.055.981 0 1.526 0v1.744zM29.717 18.924v10.793h-9.43v-1.799h7.631v-8.993zM10.258 27.918v1.798H.283V18.98h1.799v8.939zM10.312.283v1.8h-8.23v8.938H.283V.283zM29.717.283v10.793h-1.799V2.082h-8.23V.284z"/>
    </g>
</svg>
